SplineFontDB: 3.2
FontName: Lotrazi_Neue
FullName: Lotrazi Neue
FamilyName: Lotrazi_Neue
Weight: Regular
Copyright: Copyright (c) 2022, Ghassan Younes
UComments: "2022-5-7: Created with FontForge (http://fontforge.org)"
Version: 000.200
ItalicAngle: 0
UnderlinePosition: -100
UnderlineWidth: 50
Ascent: 800
Descent: 200
InvalidEm: 0
LayerCount: 2
Layer: 0 0 "Back" 1
Layer: 1 0 "Fore" 0
XUID: [1021 395 -844927216 8518334]
StyleMap: 0x0000
FSType: 0
OS2Version: 0
OS2_WeightWidthSlopeOnly: 0
OS2_UseTypoMetrics: 1
CreationTime: 1651935723
ModificationTime: 1652407009
OS2TypoAscent: 0
OS2TypoAOffset: 1
OS2TypoDescent: 0
OS2TypoDOffset: 1
OS2TypoLinegap: 90
OS2WinAscent: 0
OS2WinAOffset: 1
OS2WinDescent: 0
OS2WinDOffset: 1
HheadAscent: 0
HheadAOffset: 1
HheadDescent: 0
HheadDOffset: 1
OS2Vendor: 'PfEd'
Lookup: 4 0 1 "ligature_G_X_C" { "ligaturesh_G_X_C"  } ['liga' ('latn' <'dflt' > ) ]
Lookup: 4 0 1 "ligature_G_X_D" { "ligaturesh_G_X_D"  } ['liga' ('latn' <'dflt' > ) ]
Lookup: 4 0 1 "ligature_G_X_E" { "ligaturesh_G_X_E"  } ['liga' ('latn' <'dflt' > ) ]
Lookup: 4 0 1 "ligature_G_S_C" { "ligaturesh_G_S_C"  } ['liga' ('latn' <'dflt' > ) ]
Lookup: 4 0 1 "ligature_G_S_D" { "ligaturesh_G_S_D"  } ['liga' ('latn' <'dflt' > ) ]
Lookup: 4 0 1 "ligature_G_S_E" { "ligaturesh_G_S_E"  } ['liga' ('latn' <'dflt' > ) ]
Lookup: 4 0 1 "ligature_G_W_E" { "ligaturesh_G_W_E"  } ['liga' ('latn' <'dflt' > ) ]
Lookup: 4 0 1 "ligature_G_Z_C" { "ligaturesh_G_Z_C"  } ['liga' ('latn' <'dflt' > ) ]
Lookup: 4 0 1 "ligature_G_Z_D" { "ligaturesh_G_Z_D"  } ['liga' ('latn' <'dflt' > ) ]
Lookup: 4 0 1 "ligature_G_Z_E" { "ligaturesh_G_Z_E"  } ['liga' ('latn' <'dflt' > ) ]
Lookup: 4 0 1 "ligature_G_A_C" { "ligaturesh_G_A_C"  } ['liga' ('latn' <'dflt' > ) ]
Lookup: 4 0 1 "ligature_G_A_D" { "ligaturesh_G_A_D"  } ['liga' ('latn' <'dflt' > ) ]
Lookup: 4 0 1 "ligature_G_A_E" { "ligaturesh_G_A_E"  } ['liga' ('latn' <'dflt' > ) ]
Lookup: 4 0 1 "ligature_G_Q_C" { "ligaturesh_G_Q_C"  } ['liga' ('latn' <'dflt' > ) ]

StartChar: A
Encoding: 65 65 0
Width: 416
VWidth: 1666
Flags: W
HStem: 332 226 441 21G<80 120 296.655 337.345> 449 89G<188 228.345 297 337>
LayerCount: 2
Fore
SplineSet
317 558 m 1x80
 376 499 l 1
 317 441 l 1x40
 258 499 l 2
 317 558 l 1x80
100 559 m 1
 159 500 l 1
 100 441 l 1
 41 500 l 2
 100 559 l 1
208 449 m 1x20
 267 391 l 1
 208 332 l 1x80
 149 390 l 1
 208 449 l 1x20
EndSplineSet
Validated: 1
EndChar

StartChar: B
Encoding: 66 66 1
Width: 1000
VWidth: 1666
Flags: W
HStem: -332 83<414.931 788.902> 161.405 82.8294<599.404 912> 641 83<736.548 838.368> 711 21G<390.667 465.5>
VStem: -6 83<-86.4354 36> 427 82.8466<294.974 403.467> 769.4 83.2191<919.106 1009.88> 914.316 83.6839<-112.684 163 246 454.273>
LayerCount: 2
Fore
SplineSet
913 163 m 1xef
 882.125718926 162.035178716 851.214202647 161.405474272 820.775590675 161.405474272 c 0
 693.471973644 161.405474272 574.440252639 172.420069863 501 216 c 0
 459 241 427 283 427 338 c 0
 427 404 470 481 557 575 c 0
 643 668 723 724 797 724 c 0
 981 724 994 398 996 206 c 0
 996 205 998 94 998 70 c 0
 998 -94 983 -332 659 -332 c 0
 473 -332 347 -332 235 -300 c 0
 112 -265 -6 -182 -6 36 c 1
 77 36 l 1
 77 -247 301 -249 659 -249 c 0
 886.917310081 -249 914.316148554 -120.57805751 914.316148554 70.5324329345 c 0
 914.316148554 99.9495494939 913.666971291 130.851983762 913 163 c 1xef
912 246 m 1
 910 338 904 450 881 531 c 0
 859 611 828 641 797 641 c 0
 717 641 567 475 527 396 c 0
 514.573585224 371.474181362 509.846572429 352.615978073 509.846572429 337.921710894 c 0
 509.846572429 307.680881119 529.867229219 295.075869018 544 287 c 0
 604.597592946 251.225517418 725.427979418 244.234847671 820.875240139 244.234847671 c 0
 856.16126856 244.234847671 887.978141833 245.190274444 912 246 c 1
753 1011 m 1
 656 875 527 791 404 711 c 1xdf
 358 780 l 1
 498 872 630 959 718 1110 c 2
 752 1168 l 1
 789 1112 l 2
 810 1080 833 1046 845 1008 c 0
 850.33550489 991.566644938 852.619281728 976.681927993 852.619281728 963.248640149 c 0
 852.619281728 913.739019495 821.597394132 883.945016283 798 869 c 0
 752 939 l 1
 761.195572504 945.321956096 769.400224457 951.313605343 769.400224457 964.948019288 c 0
 769.400224457 975.037046492 764.907748118 989.310887356 753 1011 c 1
EndSplineSet
Validated: 1
EndChar

StartChar: C
Encoding: 67 67 2
Width: 416
VWidth: 1666
Flags: W
HStem: 332 84<138.862 281.554> 591 20G<77.7881 120 297.51 340.025>
VStem: 40.9631 82.7373<430.165 536.878> 293 82.9287<429.389 538.185>
LayerCount: 2
Fore
SplineSet
95 611 m 1
 160 559 l 0
 143.880238452 538.850298065 123.700372024 500.204562786 123.700372024 468.817763677 c 0
 123.700372024 453.474145814 128.522955784 439.865268259 141 431 c 0
 151 424 172 416 208 416 c 0
 292 416 293 455 293 469 c 0
 293 495 278 532 258 558 c 1
 323 609 l 1
 357.049992791 565.663645539 375.928747171 515.673239144 375.928747171 470.151328725 c 0
 375.928747171 427.436918328 359.306826374 388.656823971 323 363 c 0
 294 342 255 332 208 332 c 0
 90.2623913621 332 40.9631045768 394.797800821 40.9631045768 469.202248427 c 0
 40.9631045768 516.132471243 60.5762873374 567.680271705 95 611 c 1
EndSplineSet
Validated: 1
EndChar

StartChar: D
Encoding: 68 68 3
Width: 416
VWidth: 1666
Flags: W
HStem: 654.123 83.8771<124.257 292.241>
VStem: 41 83<743.877 801.847> 293 82.9893<749.346 800.348>
LayerCount: 2
Fore
SplineSet
208 875 m 1
 134 798 124 766 124 755 c 0
 124 744 170 738 208 738 c 0
 280 738 292 754 292 754 c 1
 292 754 293 754 293 755 c 0
 293 784 237 844 208 875 c 1
101 671 m 0
 47 694 41 735 41 755 c 0
 41 826 111 897 208 994 c 1
 277 925 303 899 331 861 c 0
 364.238544323 816.4534973 375.989305496 781.417980583 375.989305496 754.163317847 c 0
 375.989305496 701.880734314 332.748034055 678.230680541 315 671 c 0
 288.205664528 659.877823012 247.354190312 654.122917181 206.65884872 654.122917181 c 0
 166.857582861 654.122917181 127.205664528 659.627730488 101 671 c 0
EndSplineSet
Validated: 1
EndChar

StartChar: E
Encoding: 69 69 4
Width: 416
VWidth: 1666
Flags: W
HStem: -194.877 83.8771<124.257 292.241>
VStem: 41 83<-105.123 -47.2147> 293 82.9893<-100.153 -48.652>
LayerCount: 2
Fore
SplineSet
208 26 m 5
 134 -51 124 -83 124 -94 c 4
 124 -105 170 -111 208 -111 c 4
 280 -111 292 -96 292 -96 c 5
 292 -96 293 -95 293 -94 c 4
 293 -65 237 -5 208 26 c 5
101 -178 m 4
 47 -155 41 -114 41 -94 c 4
 41 -23 111 47 208 144 c 5
 277 75 303 50 331 12 c 4
 364.238544323 -32.5465027005 375.989305496 -67.5820194169 375.989305496 -94.8366821532 c 0
 375.989305496 -147.119265686 332.748034055 -170.769319459 315 -178 c 4
 288.205664528 -189.122176988 247.354190312 -194.877082819 206.65884872 -194.877082819 c 0
 166.857582861 -194.877082819 127.205664528 -189.372269512 101 -178 c 4
EndSplineSet
Validated: 1
EndChar

StartChar: F
Encoding: 70 70 5
Width: 1000
VWidth: 1666
Flags: W
HStem: -51 83.4537<179.622 568.221> 181 80<205.075 259.829> 487 20G<657.778 685.538> 749 21G<603.311 635> 782 83<635.426 761.366>
VStem: 8.67748 82.6854<100.429 191.782> 635.322 83.6776<284.278 356.604> 908 83<340.83 596.119>
LayerCount: 2
Fore
SplineSet
908 499 m 0
 903 626 794 782 695 782 c 0
 672 782 648 773 622 749 c 0
 565 810 l 1
 604 847 649 865 695 865 c 0
 751 865 801 840 843 804 c 0
 949 714 991 575 991 500 c 0
 991 -27 541 -51 355 -51 c 0
 275 -51 194 -49 117 -8 c 0
 27.9112620495 40.1955467601 8.67748399415 109.720852267 8.67748399415 161.247152168 c 0
 8.67748399415 180.282055989 11.3023555697 196.860600064 14 209 c 1
 95 191 l 1
 92.5151944606 180.128975765 91.362919335 170.005615654 91.362919335 160.578886351 c 0
 91.362919335 48.6056377014 253.941254328 34.9223498269 277 34 c 0
 301.598166164 33.0258152014 326.354504997 32.4536526065 351.081755065 32.4536526065 c 0
 630.944559417 32.4536526065 907.081182067 105.745924482 908 499 c 0
632 357 m 5
 497 258 349 219 207 181 c 5
 185 261 l 5
 346 304 499 346 630 462 c 6
 680 507 l 5
 698 442 l 6
 708 405 719 365 719 325 c 4
 719 244 665 217 631 208 c 4
 609 288 l 5
 623.646882704 291.854442817 635.322419523 296.897423988 635.322419523 325.118478502 c 0
 635.322419523 333.505898746 634.291114366 343.940648113 632 357 c 5
EndSplineSet
Validated: 1
EndChar

StartChar: G
Encoding: 71 71 6
Width: 1000
VWidth: 1666
Flags: W
HStem: -42.7583 83.5602<172.262 342.504> 408 20G<89.402 146.69 916.818 945.231> 427.054 83.9461<613.906 760.761> 504 81<464.185 519.537> 532 21G<884.75 907>
VStem: 21.3956 83.2291<110.884 284.8> 893.291 83.0429<48.4225 277.225 607.977 680.512>
LayerCount: 2
Fore
SplineSet
126 428 m 1xc6
 186 370 l 1
 129.255170019 311.023631761 104.624729968 247.067500527 104.624729968 191.350011279 c 0
 104.624729968 106.529485735 161.705656406 40.8019733954 249.464153152 40.8019733954 c 0
 284.889491285 40.8019733954 325.313685319 51.5121554476 369 76 c 0
 406 97 421 173 423 185 c 0
 469 461 600 511 682 511 c 0
 823 511 905 394 945 317 c 0
 960.666989036 286.710487864 976.333978072 226.966430273 976.333978072 160.128893397 c 0
 976.333978072 98.9822910318 963.221362571 31.8987427596 925 -24 c 0
 857 23 l 0
 884.470233625 62.8761455844 893.29106432 111.978837882 893.29106432 156.826407011 c 0
 893.29106432 213.199283401 879.353975736 262.848980244 871 279 c 0
 797 424 707 426 685 427 c 0
 683.700891404 427.03608635 682.414805054 427.053941555 681.141505988 427.053941555 c 0xa6
 647.130020928 427.053941555 622.242186652 414.314359352 602 396 c 0
 555 355 521 270 505 172 c 0
 501 145 492 109 475 75 c 0
 461 48 441 20 410 3 c 0
 353.126627284 -28.80418869 298.98327189 -42.7582641171 250.149831142 -42.7582641171 c 0
 115.624859247 -42.7582641171 21.3955878136 63.1359509798 21.3955878136 193.476475774 c 0
 21.3955878136 268.727111944 52.8040920338 352.126192962 126 428 c 1xc6
892 681 m 1
 757 582 608 542 466 504 c 1
 445 585 l 1x96
 606 628 758 670 889 786 c 2
 940 830 l 1
 957 765 l 2
 967 728 978 689 978 649 c 0
 978 568 924 541 890 532 c 0x8e
 869 612 l 1
 883.646484375 615.854492188 895.322265625 620.302734375 895.322265625 648.709960938 c 0
 895.322265625 657.15234375 894.291015625 667.711914062 892 681 c 1
EndSplineSet
Validated: 1
EndChar

StartChar: H
Encoding: 72 72 7
Width: 666
VWidth: 1666
Flags: W
HStem: -41 82.3305<198.04 600.251> 518 21G<91.2581 164 458.258 486.209> 692 20G<303.5 454>
VStem: 9 82.9525<106.704 242.486> 434.392 83.667<774.754 863.825>
LayerCount: 2
Fore
SplineSet
606 67 m 1
 632 -13 l 1
 573 -32 495 -41 395 -41 c 0
 278 -41 193 -28 130 -2 c 0
 29 40 9 112 9 162 c 0
 9 326 212 529 395 712 c 1
 513 594 588 519 658 429 c 1
 592 378 l 1
 533 454 458 530 395 594 c 1
 248 446 152 334 111 239 c 0
 96.9643919199 206.820800987 91.9525010627 181.907452206 91.9525010627 162.574986582 c 0
 91.9525010627 125.434580774 110.450314757 108.892017147 119 101 c 0
 166.41188363 58.1035338587 280.088001322 41.3304676841 390.080663746 41.3304676841 c 0
 474.962849909 41.3304676841 557.651417654 51.3193786985 606 67 c 1
411 866 m 5
 335 717 219 615 109 518 c 4
 54 580 l 5
 179 691 297 797 362 959 c 6
 387 1021 l 5
 472 926 477 920 493 894 c 4
 511.095703125 864.684570312 518.05859375 839.036132812 518.05859375 816.913085938 c 4
 518.05859375 777.911132812 496.41796875 749.866210938 476 732 c 5
 421 794 l 5
 427.696289062 799.666015625 434.391601562 805.862304688 434.391601562 817.098632812 c 4
 434.391601562 827.677734375 428.45703125 842.723632812 411 866 c 5
EndSplineSet
Validated: 1
EndChar

StartChar: J
Encoding: 74 74 8
Width: 1000
VWidth: 1666
Flags: W
HStem: -42 83.0709<155.48 487.459 773 822.923> 625.004 82.9956<615.382 829.05> 814 80<470.075 524.829> 841 21G<890.568 913>
VStem: 15 83.1106<81.7982 193.63> 543 83.9308<80.4664 193.057> 902 82.8788<181.111 500.339 919.918 989.098>
LayerCount: 2
Fore
SplineSet
902 334 m 0xce
 901 404 882 625 780 625 c 1
 780 625 779.626666667 625.004444444 778.898666667 625.004444444 c 0
 768.706666667 625.004444444 689 624.133333333 591 598 c 0
 520 579 443 548 381 498 c 1
 485.27433597 392.929676732 626.930822828 242.874053244 626.930822828 122.474589778 c 0
 626.930822828 91.6160321088 617.625346467 62.7056005171 596 37 c 0
 541 -28 426 -42 321 -42 c 0
 231 -42 164 -32 114 -11 c 0
 30 24 15 85 15 124 c 0
 15 251 170 408 291 529 c 0
 469 707 771 708 780 708 c 0
 857 708 905 654 932 599 c 0
 957 549 969 492 976 444 c 0
 981.879951962 403.330332266 984.878751001 368.1828743 984.878751001 333.734135325 c 0
 984.878751001 297.878751001 981.630052042 262.78031225 975 223 c 0
 939 -4 837 -42 773 -42 c 1
 773 42 l 1
 876 42 901 263 902 334 c 0xce
321 441 m 1
 213 332 142 248 112 179 c 0
 101.735259062 155.638865451 98.1106370844 137.915567756 98.1106370844 124.41104951 c 0
 98.1106370844 99.7625318932 110.185609257 89.1683473274 116 84 c 0
 150.637348456 52.8850937596 236.628371231 41.0708973304 318.53240166 41.0708973304 c 0
 376.140718759 41.0708973304 431.72711732 46.9156214583 466 56 c 0
 543 76 543 111 543 124 c 0
 543 217 382 380 321 441 c 1
897 990 m 5
 762 891 614 852 472 814 c 5
 450 894 l 5xee
 611 937 764 979 895 1095 c 6
 945 1140 l 5
 963 1075 l 6
 973 1038 984 999 984 959 c 4
 984 878 930 850 896 841 c 4xde
 874 922 l 5
 888.011046016 925.891957227 900.204412306 929.783914453 900.204412306 958.671843855 c 0
 900.204412306 966.896256289 899.216085547 977.14670383 897 990 c 5
EndSplineSet
Validated: 1
EndChar

StartChar: K
Encoding: 75 75 9
Width: 666
VWidth: 1666
Flags: W
HStem: -42 83.0709<168.38 499.476> 650 21G<360.51 392.452>
VStem: 27.8398 83.1602<80.6362 193.352> 330.525 83.0024<688.869 759.154> 556 82.8635<81.4719 194.222>
LayerCount: 2
Fore
SplineSet
469 292 m 1
 534 344 l 1
 572.160402943 296.299496321 638.863508068 206.592751696 638.863508068 123.095486006 c 0
 638.863508068 92.8136120378 630.090126071 63.3484636272 608 37 c 0
 553 -28 438 -42 333 -42 c 0
 229 -42 114 -28 59 37 c 0
 36.6902506412 63.4604004023 27.8398013487 93.0837363203 27.8398013487 123.530666831 c 0
 27.8398013487 210.451080156 99.9707845109 304.083772794 137 350 c 0
 137 350 137 349 202 297 c 1
 126 203 111 151 111 124 c 0
 111 107 115 95 128 84 c 0
 162.637348456 52.8850937596 248.628371231 41.0708973304 330.53240166 41.0708973304 c 0
 388.140718759 41.0708973304 443.72711732 46.9156214583 478 56 c 0
 555 76 556 111 556 124 c 0
 556 174 508 243 469 292 c 1
298 770 m 1
 250 610 155 488 64 373 c 1
 -2 425 l 1
 101 557 198 681 233 852 c 2
 247 918 l 1
 300 877 l 2
 330 853 362 829 386 797 c 0
 406.260094962 770.124363826 413.527341095 745.129271561 413.527341095 723.075020001 c 0
 413.527341095 691.790018786 398.903630833 666.422802879 386 650 c 0
 321 701 l 1
 326.127622764 707.409528455 330.524897883 713.636469998 330.524897883 721.787357435 c 0
 330.524897883 732.711712805 322.62601843 747.092075879 298 770 c 1
EndSplineSet
Validated: 1
EndChar

StartChar: M
Encoding: 77 77 10
Width: 666
VWidth: 1666
Flags: W
HStem: 335 83<215.618 506.444> 625 83<1 51.2211>
VStem: 55.1498 82.8502<121.395 273.854> 118.006 82.7674<397.159 541.516> 583.444 82.5561<123.863 276.313>
LayerCount: 2
Fore
SplineSet
0 625 m 1xd8
 1 708 l 1
 99.2615707779 708 200.77382291 599.102174641 200.77382291 447.241237305 c 0xd8
 200.77382291 430.645248514 199.561460181 413.536150473 197 396 c 1
 241 411 296 418 361 418 c 0
 629 418 666 286 666 212 c 0
 666 124 618 33 560 -40 c 0
 494 12 l 1
 539.355075315 68.4949183745 583.44386386 148.416141982 583.44386386 212.467728016 c 0
 583.44386386 228.912985579 580.537501578 244.312106072 574 258 c 0
 544 322 439 335 361 335 c 0
 213 335 171 290 160 277 c 0
 158 273 158 273 157 273 c 0
 144 256 138 236 138 211 c 0
 138 155 172 81 222 18 c 1
 157 -34 l 1
 90.7826665977 50.2181619 55.1497811147 136.089537201 55.1497811147 210.063056653 c 0xe8
 55.1497811147 251.154160194 66.1447508519 288.574032421 89 320 c 1
 109.608309899 365.595885652 118.006424737 407.940143271 118.006424737 445.682304976 c 0
 118.006424737 554.452542939 48.255748207 625 0 625 c 1xd8
EndSplineSet
Validated: 1
EndChar

StartChar: N
Encoding: 78 78 11
Width: 666
VWidth: 1666
Flags: W
HStem: -167.624 83<-288.892 -162.709> -62.624 82.624<189.14 477.723> 456 21G<602.596 631.712> 716 20G<503.154 530.304>
VStem: 28.1084 83.3789<80.1161 233.336> 556.108 83.2559<77.8271 234.078> 574.566 83.5869<497.916 576.074>
LayerCount: 2
Fore
SplineSet
108.108398438 -9.6240234375 m 1xfc
 111.108398438 -12.6240234375 l 1
 -1.8916015625 -115.624023438 -176.891601562 -167.624023438 -288.891601562 -167.624023438 c 1
 -289.891601562 -84.6240234375 l 1
 -201.891601562 -84.6240234375 -45.8916015625 -40.6240234375 53.1083984375 48.3759765625 c 1
 32.1083984375 84.3759765625 28.1083984375 121.375976562 28.1083984375 144.375976562 c 0
 28.1083984375 230.375976562 74.1083984375 318.375976562 130.108398438 389.375976562 c 0
 196.108398438 337.375976562 l 0
 171.802734375 306.319335938 111.487304688 219.1953125 111.487304688 144.633789062 c 0
 111.487304688 108.758789062 125.451171875 75.791015625 164.108398438 53.3759765625 c 0
 202.391601562 31.0029296875 267.620117188 20 333 20 c 0
 399.119140625 20 465.391601562 31.2529296875 504.108398438 53.3759765625 c 0
 529.108398438 67.3759765625 556.108398438 91.3759765625 556.108398438 143.375976562 c 0
 556.108398438 200.375976562 520.108398438 278.375976562 468.108398438 343.375976562 c 1
 533.108398438 395.375976562 l 1
 602.713867188 308.548828125 639.364257812 220.17578125 639.364257812 144.668945312 c 0
 639.364257812 114.952148438 633.6875 87.228515625 622.108398438 62.3759765625 c 0
 565.108398438 -59.6240234375 391.108398438 -62.6240234375 334.108398438 -62.6240234375 c 0
 236.108398438 -62.6240234375 160.108398438 -45.6240234375 108.108398438 -9.6240234375 c 1xfc
547 583 m 1
 484 428 379 317 278 210 c 1
 217 267 l 1
 332 389 440 504 490 671 c 2
 509 736 l 1
 558 690 l 2
 586 664 616 636 637 602 c 0
 652.364257812 577.345703125 658.153320312 554.989257812 658.153320312 535.25 c 0
 658.153320312 499.74609375 639.424804688 472.709960938 624 456 c 0
 563 513 l 1
 569.115234375 519.584960938 574.56640625 525.94921875 574.56640625 535.318359375 c 0xfa
 574.56640625 545.8671875 567.655273438 560.2265625 547 583 c 1
EndSplineSet
Validated: 1
EndChar

StartChar: Q
Encoding: 81 81 12
Width: 416
VWidth: 1666
Flags: W
HStem: 441 226 539 20G<80 120 297 337> 539 20G<80 120 297 337> 550 21G<188.655 229>
LayerCount: 2
Fore
SplineSet
100 441 m 1x80
 41 500 l 1
 100 559 l 1x40
 159 500 l 2
 100 441 l 1x80
317 441 m 1x80
 258 499 l 1
 317 558 l 1
 376 499 l 1
 317 441 l 1x80
209 550 m 1x10
 150 608 l 1
 209 667 l 2x80
 268 609 l 2
 209 550 l 1x10
EndSplineSet
Validated: 1
EndChar

StartChar: R
Encoding: 82 82 13
Width: 1000
VWidth: 1666
Flags: W
HStem: -42 83.0709<335.107 666.459> 625.004 82.9956<0 180.875 817.125 1000> 746 80<485.075 539.829> 773 21G<905.5 928>
VStem: 193.961 83.1497<80.8982 194.287> 722 83.9393<80.4769 193.076> 915.322 83.6776<852.106 921.599>
LayerCount: 2
Fore
SplineSet
500 441 m 1xce
 392 332 321 248 291 179 c 0
 280.735259062 155.638865451 277.110637084 137.915567756 277.110637084 124.41104951 c 0
 277.110637084 99.7625318932 289.185609257 89.1683473274 295 84 c 0
 329.637348456 52.8850937596 415.628371231 41.0708973304 497.53240166 41.0708973304 c 0
 555.140718759 41.0708973304 610.72711732 46.9156214583 645 56 c 0
 722 76 722 111 722 124 c 0
 722 217 561 380 500 441 c 1xce
1000 708 m 1
 1000 625 l 1
 1000 625 999.568888889 625.004444444 998.729777778 625.004444444 c 0
 986.982222222 625.004444444 895.266666667 624.133333333 787 598 c 0
 708 579 625 547 561 498 c 1
 664.466236214 392.941975536 805.939319895 242.909181571 805.939319895 122.516870378 c 0
 805.939319895 91.6424396099 796.635222779 62.7173402846 775 37 c 0
 720 -28 605 -42 500 -42 c 0
 396 -42 280 -28 225 37 c 0
 203.297412688 62.7974151069 193.960941194 91.8225960375 193.960941194 122.805323642 c 0
 193.960941194 243.14875263 334.821122056 393.025863445 439 498 c 1
 291 613 45 625 0 625 c 1
 0 708 l 1
 5 708 316 708 500 556 c 1
 684 708 995 708 1000 708 c 1
912 922 m 1
 777 823 629 784 487 746 c 1
 465 826 l 1xee
 626 869 779 911 910 1027 c 2
 960 1072 l 1
 977 1007 l 2
 987 970 999 930 999 890 c 0
 999 809 945 782 911 773 c 0xde
 889 853 l 1
 903.646882704 856.854442817 915.322419523 861.303154811 915.322419523 889.710016907 c 0
 915.322419523 898.152659973 914.291114366 908.711536677 912 922 c 1
EndSplineSet
Validated: 1
EndChar

StartChar: S
Encoding: 83 83 14
Width: 416
VWidth: 1666
Flags: W
HStem: 441 118
LayerCount: 2
Fore
SplineSet
375 500 m 1
 317 441 l 1
 258 500 l 1
 316 559 l 2
 375 500 l 1
159 500 m 1
 100 442 l 1
 41 500 l 2
 100 559 l 1
 159 500 l 1
EndSplineSet
Validated: 1
EndChar

StartChar: T
Encoding: 84 84 15
Width: 1000
VWidth: 1666
Flags: W
HStem: -208 82.9956<0 182.875 819.125 1000> 458.564 83.4365<333.541 664.593> 553 81<251.185 306.537> 580 21G<671.815 694>
VStem: 194.061 83.9393<306.924 419.523> 682.322 83.6776<658.616 728.093> 722.889 83.1497<305.713 417.942>
LayerCount: 2
Fore
SplineSet
500 59 m 1xca
 608 168 679 252 709 321 c 0
 719.264740938 344.361134549 722.889362916 361.959146981 722.889362916 375.301785788 c 0
 722.889362916 399.654840202 710.814390743 409.831652673 705 415 c 0
 669.946014355 446.489173545 582.295503421 458.56352232 499.513907857 458.56352232 c 0
 442.964296188 458.56352232 388.686765957 452.929022302 355 444 c 0
 278 424 278 389 278 376 c 0
 278 283 439 120 500 59 c 1xca
0 -208 m 1
 0 -125 l 1
 8.54871728961e-15 -125 0.431111111111 -125.004444444 1.27022222222 -125.004444444 c 0
 13.0177777778 -125.004444444 104.733333333 -124.133333333 213 -98 c 0
 292 -79 375 -47 439 2 c 1
 335.533763786 107.058024464 194.060680105 257.090818429 194.060680105 377.483129622 c 0
 194.060680105 408.35756039 203.364777221 437.282659715 225 463 c 0
 280 528 395 542 500 542 c 0
 604 542 720 528 775 463 c 0
 796.702587312 437.202584893 806.039058806 408.177403962 806.039058806 377.194676358 c 0
 806.039058806 256.85124737 665.178877944 106.974136555 561 2 c 1
 709 -113 955 -125 1000 -125 c 1
 1000 -208 l 1
 995 -208 684 -208 500 -56 c 1
 316 -208 5 -208 0 -208 c 1
679 729 m 1
 544 630 395 591 253 553 c 1
 232 634 l 1xec
 393 677 545 718 676 834 c 2
 727 879 l 1
 744 814 l 2
 754 777 766 738 766 698 c 0
 766 617 711 589 677 580 c 0
 656 661 l 1
 670.646882704 664.854442817 682.322419523 669.303154811 682.322419523 697.251901595 c 0xdc
 682.322419523 705.558390796 681.291114366 715.940648113 679 729 c 1
EndSplineSet
Validated: 1
EndChar

StartChar: U
Encoding: 85 85 16
Width: 666
VWidth: 1666
Flags: W
HStem: -333 83<584.143 667> -41 83<196.636 326 438 594.099> 625 83<0 124.933> 760 80<86.9875 132.927> 798 21G<506.25 528.693>
VStem: 8.36616 84.3114<105.637 243.362> 292 83<333 441.32> 326 87<44 149.484> 514.312 83.7415<873.847 946.614>
LayerCount: 2
Fore
SplineSet
375 333 m 1xe680
 375 333 376 189 413 42 c 1
 499 43 562 53 606 67 c 1
 632 -13 l 1
 581 -29 518 -39 438 -41 c 1
 483 -163 554 -250 667 -250 c 1
 667 -333 l 1
 452 -333 373 -110 350 -41 c 1
 231 -37 107 -17 46 56 c 0
 19.5262768472 87.3936186059 8.36615592657 122.903796952 8.36615592657 160.601673747 c 0
 8.36615592657 283.812787852 127.582249776 430.393618606 221 533 c 1
 159 608 73 625 0 625 c 1
 0 708 l 1
 155 708 237 641 279 594 c 1
 309 625 327 643 396 712 c 1
 514 594 588 519 658 429 c 1
 592 378 l 1
 533 454 459 530 396 594 c 1
 374 572 350 548 326 523 c 1xe580
 370 438 375 352 375 333 c 1xe680
292 333 m 0xe680
 292 334 292 389 265 457 c 1
 215 400 145 316 112 239 c 0
 97.7456013678 206.319183624 92.6775673446 181.132506797 92.6775673446 161.674970697 c 0
 92.6775673446 125.166695774 110.519687371 108.827980888 119 101 c 0
 171 55 285 46 326 44 c 1xe580
 292 192 292 330 292 333 c 0xe680
510 947 m 1
 378 845 230 802 89 760 c 1
 66 840 l 1xf480
 226 887 377 933 505 1052 c 2
 554 1098 l 1
 573 1033 l 2
 589.657616216 976.969836363 598.054012253 948.727413331 598.054012253 912.658581401 c 0
 598.054012253 834.993463044 545.385316297 807.819210676 512 798 c 0xec80
 489 878 l 1
 502.5 881.75 514.3125 886.625 514.3125 912.875 c 0
 514.3125 921.625 513 932.75 510 947 c 1
EndSplineSet
Validated: 1
EndChar

StartChar: V
Encoding: 86 86 17
Width: 1000
VWidth: 1666
Flags: W
HStem: -333 83<-270 -82.5938> -51.0761 83.9503<341 572.261> 292 83<143.78 256.968> 365 80<8.1625 63.5371> 671 20G<461.333 489.231> 749 21G<611.311 643> 782 83<643.762 770.366>
VStem: 17 83<101.593 248.25> 280.511 83.6619<50.7459 269.69> 439.322 82.6776<469.206 540.093> 917 83<331.28 596.119>
LayerCount: 2
Fore
SplineSet
100 160 m 0xefe0
 100 67 215 43 254 37 c 1
 273.030889207 85.282070765 280.510937813 131.204292375 280.510937813 170.433241094 c 0
 280.510937813 242.516129032 255.255468906 292 230 292 c 0
 107 292 105 206 105 200 c 0
 105 191 100 180 100 160 c 0xefe0
305 -50 m 1
 277 -101 239 -149 187 -192 c 0
 85 -276 -65 -333 -270 -333 c 1
 -270 -250 l 1
 16 -250 151 -131 213 -40 c 1
 96 -15 17 58 17 160 c 0
 17 175 19 190 22 206 c 0
 23 218 27 245 41 274 c 0
 84 360 174 375 230 375 c 0
 312.148616332 375 364.1728279 287.269277357 364.1728279 171.744145436 c 0
 364.1728279 128.358020053 356.835223476 81.0517126163 341 33 c 1
 347.622185617 32.9167020677 354.217918028 32.8741680904 360.785436244 32.8741680904 c 0
 669.59276757 32.8741680904 916.020824483 126.913303567 917 499 c 0
 912 626 803 782 704 782 c 0
 681 782 656 773 630 749 c 0
 573 810 l 1
 612 847 658 865 704 865 c 0
 760 865 810 840 852 804 c 0
 958 714 1000 575 1000 500 c 0
 1000 -3.67724969109 588.036438746 -51.076132734 367.020700244 -51.076132734 c 0
 344.061252886 -51.076132734 323.162393542 -50.5646339961 305 -50 c 1
436 541 m 1
 301 442 152 403 10 365 c 1
 -11 445 l 1xdfe0
 150 488 302 530 433 646 c 2
 484 691 l 1
 501 626 l 2
 511 589 522 550 522 510 c 0
 522 429 468 401 434 392 c 0
 413 473 l 1
 427.646882704 476.854442817 439.322419523 481.303154811 439.322419523 509.251901595 c 0
 439.322419523 517.558390796 438.291114366 527.940648113 436 541 c 1
EndSplineSet
Validated: 1
EndChar

StartChar: W
Encoding: 87 87 18
Width: 416
VWidth: 1666
Flags: W
HStem: 332 84<124.156 290.871> 501 146G<55.5 97.5 189 229 295 328> 550 21G<188 228>
VStem: 41 82.8719<426.675 469.127> 292.051 83.949<431 480.508>
LayerCount: 2
Fore
SplineSet
208 550 m 1xb8
 150 608 l 1
 209 667 l 2
 267 609 l 2
 208 550 l 1xb8
255 501 m 1xd8
 320 553 l 1
 336 533 350 513 361 491 c 0
 372 468 376 449 376 433 c 0
 376 408 366 390 356 378 c 0
 322 338 256 332 208 332 c 0
 160 332 95 338 61 378 c 0
 46 395 41 414 41 433 c 0
 41 458 50 482 61 501 c 0
 134 461 l 0
 128.518682765 450.950918402 123.87194438 439.232679102 123.87194438 432.70716926 c 0
 123.87194438 432.08967727 123.913552873 431.518682765 124 431 c 1
 124 431 136 416 208 416 c 0
 279 416 292 431 292 431 c 0
 292 431.130434783 292.051039698 431.56710775 292.051039698 432.338867428 c 0
 292.051039698 437.483931947 289.782608696 457.52173913 255 501 c 1xd8
EndSplineSet
Validated: 1
EndChar

StartChar: X
Encoding: 88 88 19
Width: 416
VWidth: 1666
Flags: W
HStem: 431 20G<188 229> 550 21G<188 228>
VStem: 149 118
LayerCount: 2
Fore
SplineSet
208 333 m 1
 149 392 l 1
 208 451 l 1
 267 392 l 2
 208 333 l 1
208 550 m 1
 150 608 l 1
 209 667 l 2
 267 609 l 2
 208 550 l 1
EndSplineSet
Validated: 1
EndChar

StartChar: Y
Encoding: 89 89 20
Width: 1000
VWidth: 1666
Flags: W
HStem: -42.7583 83.1799<663.484 832.868> 408 378G<488.778 516.538 858.31 915.613> 427 83.958<243.492 391.145> 460 80<36.075 90.8294> 487 21G<456.568 479>
VStem: 28.666 83.6238<51.0704 278.728> 466.322 83.6776<564.206 635.093> 900.343 83.2879<110.736 284.769>
LayerCount: 2
Fore
SplineSet
819 370 m 1xa7
 879 428 l 1
 952.226630657 352.09434627 983.630771156 268.657100032 983.630771156 193.3817247 c 0
 983.630771156 63.0846349828 889.539251357 -42.7582641171 755.387371173 -42.7582641171 c 0
 706.677561406 -42.7582641171 652.686289253 -28.80418869 596 3 c 0
 530 39 507 132 500 172 c 0
 484 270 450 355 403 396 c 0
 380 416 355 427 323 427 c 0
 215 427 154 319 134 279 c 0
 125.729179431 263.0097469 112.2898698 214.184386815 112.2898698 158.507782787 c 0
 112.2898698 113.20902972 121.186058352 63.375076586 149 23 c 1
 80 -24 l 1
 41.7786374294 31.8987427596 28.666021928 98.9822910318 28.666021928 160.128893397 c 0
 28.666021928 226.966430273 44.333010964 286.710487864 60 317 c 0
 73 343 102 397 152 442 c 0
 202.007543042 487.115500788 262.35610719 510.958043873 321.161360054 510.958043873 c 0
 370.541451527 510.958043873 418.83330204 494.145860715 459 459 c 0
 530 396 566 291 583 185 c 0
 586 164 593 135 605 112 c 0
 617 88 629 79 635 76 c 0
 679.014655052 51.2417565335 719.708859531 40.4216834913 755.337692763 40.4216834913 c 0
 843.265484642 40.4216834913 900.342903898 106.320759556 900.342903898 191.252319664 c 0
 900.342903898 247.050010904 875.707562584 311.06236473 819 370 c 1xa7
463 636 m 1
 328 537 180 498 38 460 c 1
 16 540 l 1x97
 177 583 330 625 461 741 c 2
 511 786 l 1xc7
 529 721 l 2
 539 684 550 645 550 605 c 0
 550 524 496 496 462 487 c 0x8f
 440 568 l 1
 454.646882704 571.854442817 466.322419523 576.303154811 466.322419523 604.251901595 c 0
 466.322419523 612.558390796 465.291114366 622.940648113 463 636 c 1
EndSplineSet
Validated: 1
EndChar

StartChar: Z
Encoding: 90 90 21
Width: 416
VWidth: 1666
Flags: W
HStem: 458 84<130.954 287.657> 593 20G<310.5 365.661>
LayerCount: 2
Fore
SplineSet
71 387 m 1
 12 446 l 1
 101 535 152 542 208 542 c 0
 245 542 275 542 346 613 c 1
 404 554 l 1
 315 465 264 458 208 458 c 0
 171 458 142 458 71 387 c 1
EndSplineSet
Validated: 1
EndChar

StartChar: a
Encoding: 97 97 22
Width: 1000
VWidth: 1666
Flags: W
HStem: -46 83.802<217.43 388.461 597.855 825.438> 471 80<281.163 336.537> 498 21G<701.75 724> 777 20G<734.333 762.231>
VStem: 66.5749 83.2893<107.75 281.561> 450 84<82.1504 137.694> 712.322 82.6776<574.278 646.604> 849.814 83.5394<58.8462 236.314>
LayerCount: 2
Fore
SplineSet
756 371 m 1x9f
 821 423 l 1
 883.255890038 346.567026092 933.353612541 226.820580342 933.353612541 127.695838715 c 0
 933.353612541 66.0068983236 913.950631141 12.3047988812 866 -18 c 0
 838.711420646 -35.1816981116 790.993031604 -41.1270008946 741.55723334 -41.1270008946 c 0
 693.167011727 -41.1270008946 643.131259715 -35.4305271926 609 -29 c 0
 581 -24 531 -14 491 25 c 1
 464 0 382 -46 295 -46 c 0
 160.143593314 -46 66.5749336288 59.8249049357 66.5749336288 189.754064884 c 0
 66.5749336288 265.042526769 97.9926053079 348.424505997 171 424 c 1
 231 367 l 1
 174.414358507 308.18908047 149.864234592 244.426298602 149.864234592 188.819124845 c 0
 149.864234592 103.771952992 207.290661591 37.8019733954 295.364056151 37.8019733954 c 0
 330.851113395 37.8019733954 371.313685319 48.5121554476 415 73 c 0
 427 80 445 90 450 113 c 0
 449 124 450 135 451 143 c 1
 492 138 l 1
 533 143 l 1
 534 130 535 120 534 113 c 0
 540 80 574 63 625 53 c 0
 662.836797811 45.6291952317 704.536974319 42.1217691608 740.371157732 42.1217691608 c 0
 777.461542 42.1217691608 808.267448583 45.8794177838 822 53 c 0
 841.271848929 65.8478992861 849.814244314 92.8297902603 849.814244314 126.887439772 c 0
 849.814244314 198.863154169 811.661806463 302.440945697 756 371 c 1x9f
709 647 m 1
 574 548 425 509 283 471 c 1
 262 551 l 1xdf
 423 594 575 636 706 752 c 2
 757 797 l 1
 774 732 l 2
 784 695 795 655 795 615 c 0
 795 534 741 507 707 498 c 0xbf
 686 578 l 1
 700.646882704 581.854442817 712.322419523 586.897423988 712.322419523 615.118478502 c 0
 712.322419523 623.505898746 711.291114366 633.940648113 709 647 c 1
EndSplineSet
Validated: 1
EndChar

StartChar: b
Encoding: 98 98 23
Width: 1000
VWidth: 1666
Flags: W
HStem: -332 83<419.193 792.902> 161.405 82.8294<603.404 916> 641 83<741.548 843.133>
VStem: -2 83<-86.4354 36> 431 83.5924<294.67 403.467> 918.316 83.6839<-112.684 163 246 454.273>
LayerCount: 2
Fore
SplineSet
917 163 m 1
 886.125718926 162.035178716 855.214202647 161.405474272 824.775590675 161.405474272 c 0
 697.471973644 161.405474272 578.440252639 172.420069863 505 216 c 0
 463 241 431 283 431 338 c 0
 431 404 475 481 562 575 c 0
 648 668 728 724 802 724 c 0
 986 724 998 398 1000 206 c 0
 1000 205 1002 94 1002 70 c 0
 1002 -94 987 -332 663 -332 c 0
 477 -332 352 -332 240 -300 c 0
 117 -265 -2 -182 -2 36 c 1
 81 36 l 1
 81 -247 305 -249 663 -249 c 0
 890.917310081 -249 918.316148554 -120.57805751 918.316148554 70.5324329345 c 0
 918.316148554 99.9495494939 917.666971291 130.851983762 917 163 c 1
916 246 m 1
 914 338 908 450 885 531 c 0
 863 611 833 641 802 641 c 0
 722 641 572 475 532 396 c 0
 519.381991612 371.096036076 514.592379092 352.03580428 514.592379092 337.244995164 c 0
 514.592379092 307.492265465 533.973109899 295.015365772 548 287 c 0
 608.597592946 251.225517418 729.427979418 244.234847671 824.875240139 244.234847671 c 0
 860.16126856 244.234847671 891.978141833 245.190274444 916 246 c 1
EndSplineSet
Validated: 1
EndChar

StartChar: c
Encoding: 99 99 24
Width: 1000
VWidth: 1666
Flags: W
HStem: -46 82.802<160.141 329.168> -39.1878 83.1878<519.7 708.493> 208 80<221.075 275.829> 514 20G<673.778 701.231> 743 21G<602.311 634> 776 83<634.426 760.366>
VStem: 9.57493 83.0498<107.134 280.942> 651.322 83.6776<312.206 383.093> 907 83<321.417 590.119>
LayerCount: 2
Fore
SplineSet
694 776 m 0x7f80
 671 776 647 767 621 743 c 1
 564 804 l 1
 603 841 648 859 694 859 c 0
 750 859 800 834 842 798 c 0
 948 708 990 569 990 494 c 0
 990 332 946 210 887 128 c 0
 883 122 879 117 875 112 c 0
 828 46 797 1 689 -29 c 0
 665.344071446 -35.5508725226 638.376882799 -39.1878361632 610.556820239 -39.1878361632 c 0x7f80
 561.934985271 -39.1878361632 510.708008809 -28.078568143 470 -2 c 0
 456 5 444 15 434 25 c 1
 407 0 325 -46 238 -46 c 0xbf80
 103.143593314 -46 9.57493362875 59.8249049357 9.57493362875 189.754064884 c 0
 9.57493362875 265.042526769 40.9926053079 348.424505997 114 424 c 1
 174 366 l 1
 117.255170019 307.023631761 92.6247299682 243.067500527 92.6247299682 187.350011279 c 0
 92.6247299682 102.529485735 149.705656406 36.8019733954 237.464153152 36.8019733954 c 0
 272.889491285 36.8019733954 313.313685319 47.5121554476 357 72 c 0
 369 79 388 90 393 113 c 0
 392 124 392 135 393 143 c 1
 435 138 l 1
 476 143 l 1
 477 130 478 119 477 112 c 0
 481 91 494 80 511 71 c 0
 512 70 513 70 514 69 c 0
 538 54 575 44 613 44 c 0
 671 44 723 70 744 86 c 0
 765 102 774 113 819 177 c 0
 867 244 907 347 907 493 c 0
 902 620 793 776 694 776 c 0x7f80
648 384 m 5
 513 285 365 246 223 208 c 5
 201 288 l 5
 362 331 515 373 646 489 c 6
 696 534 l 5
 713 469 l 6
 723 432 735 393 735 353 c 4
 735 272 681 244 647 235 c 4
 625 316 l 5
 639.646882704 319.854442817 651.322419523 324.303154811 651.322419523 352.251901595 c 0
 651.322419523 360.558390796 650.291114366 370.940648113 648 384 c 5
EndSplineSet
Validated: 1
EndChar

StartChar: d
Encoding: 100 100 25
Width: 1000
VWidth: 1666
Flags: W
HStem: -46.898 83.898<234.714 380.872> 217.511 83.6619<186.244 404.775> 510 21G<924.596 964.5> 853 83.2951<466.083 731.797>
VStem: -198 83<-333 -149.825> 85.0423 82.8319<278 514.66> 427 83<85.499 192.845> 917 84<579.831 703.933>
LayerCount: 2
Fore
SplineSet
173 191 m 1
 179 152 202 37 295 37 c 0
 315 37 326 42 335 42 c 0
 336 42 354 43 372 52 c 0
 411 72 427 113 427 167 c 0
 427 192.255468906 377.935483871 217.510937813 306.148177246 217.510937813 c 0
 267.080089788 217.510937813 221.282070765 210.030889207 173 191 c 1
634 853 m 0
 261.913303567 852.020824483 167.87416809 606.551552263 167.87416809 297.784153328 c 0
 167.87416809 291.217484369 167.916702068 284.622185617 168 278 c 1
 216.051712616 293.835223476 263.358020053 301.1728279 306.744145436 301.1728279 c 0
 422.269277357 301.1728279 510 249.148616332 510 167 c 0
 510 -1 390 -40 340 -42 c 1
 324.285714286 -45.4285714286 309.551020408 -46.8979591837 295.842565598 -46.8979591837 c 0
 261.571428571 -46.8979591837 233.714285714 -37.7142857143 213 -27 c 0
 124 19 100 127 95 150 c 1
 -113 9 -115 -264 -115 -333 c 1
 -198 -333 l 1
 -198 31 -20 183 86 242 c 1
 85.4635884993 260.345273324 85.0422719178 280.474517897 85.0422719178 301.961739873 c 0
 85.0422719178 480.761256228 114.215244938 753.590392819 349 875 c 0
 455.887609028 930.167798208 579.122066468 936.295051176 621.988340488 936.295051176 c 0
 628.851104537 936.295051176 633.653946399 936.138003153 636 936 c 0
 805 930 1001 791 1001 640 c 0
 1001 594 983 549 946 510 c 1
 885 567 l 1
 909 593 917 617 917 640 c 0
 917 739 761 848 634 853 c 0
EndSplineSet
Validated: 1
EndChar

StartChar: e
Encoding: 101 101 26
Width: 1000
VWidth: 1666
Flags: W
HStem: -29 83.3655<115.746 382.215> 427 438G<834.077 862.182 906 951.286> 457 21G<231.311 262.5 943.667 974.039> 489 83<262.642 350.639>
VStem: 11.1727 82.9435<75.4605 162.528> 529.625 83.9212<-171.301 25> 914.508 82.8948<631.682 704.438>
LayerCount: 2
Fore
SplineSet
587 130 m 5xbe
 761 201 895 409 917 447 c 4
 989 405 l 5
 985 398 829 131 607 48 c 5
 611.547941834 21.6598368809 613.546321133 -4.39305158647 613.546321133 -29.9545234637 c 0
 613.546321133 -139.28381042 576.988589673 -239.623274605 547 -315 c 5
 469 -284 l 5
 500.704798531 -203.903666868 529.625125457 -116.150036818 529.625125457 -27.7086712689 c 0
 529.625125457 -10.1480419613 528.484947948 7.43970116672 526 25 c 5
 432 0 314 -29 213 -29 c 4
 45.1248629718 -29 11.1727460968 56.5942780979 11.1727460968 125.146040261 c 0
 11.1727460968 146.431212518 14.4460320701 166.073334694 18 181 c 5
 99 162 l 5
 95.5701385778 147.208722617 94.1162530273 134.852950378 94.1162530273 124.489399048 c 0
 94.1162530273 86.5079005737 113.644227761 75.2850692889 127 69 c 4
 148.457473194 58.5329399055 178.063422822 54.3655422647 211.822092135 54.3655422647 c 0
 307.072596393 54.3655422647 435.382620729 87.5419125591 507 106 c 5
 480 206 426 404 352 470 c 4
 340 480.5 327 489 310.75 489 c 0
 294.5 489 275 480.5 250 457 c 4
 193 518 l 5
 230 552 269 572 310 572 c 4
 456 572 533 331 587 130 c 5xbe
884 714 m 5
 829 556 728 440 633 328 c 5
 570 382 l 5
 679 509 781 630 823 800 c 6
 839 865 l 5xce
 890 821 l 6
 919 796 950 771 973 738 c 4
 990.84486681 712.008563559 997.402897438 688.124003206 997.402897438 667.046882725 c 0
 997.402897438 633.791989836 981.077566595 607.525839046 967 591 c 4
 904 645 l 5
 909.741740564 651.625085266 914.508108799 657.8600216 914.508108799 666.289578939 c 0
 914.508108799 676.945566166 906.891433607 691.108566393 884 714 c 5
EndSplineSet
Validated: 1
EndChar

StartChar: f
Encoding: 102 102 27
Width: 1000
VWidth: 1666
Flags: W
HStem: -51 83.4537<179.622 568.221> 749 21G<603.311 635> 782 83<635.426 761.366>
VStem: 8.67748 82.6854<100.429 191.782> 908 83<340.83 596.119>
LayerCount: 2
Fore
SplineSet
908 499 m 0
 903 626 794 782 695 782 c 0
 672 782 648 773 622 749 c 0
 565 810 l 1
 604 847 649 865 695 865 c 0
 751 865 801 840 843 804 c 0
 949 714 991 575 991 500 c 0
 991 -27 541 -51 355 -51 c 0
 275 -51 194 -49 117 -8 c 0
 27.9112620495 40.1955467601 8.67748399415 109.720852267 8.67748399415 161.247152168 c 0
 8.67748399415 180.282055989 11.3023555697 196.860600064 14 209 c 1
 95 191 l 1
 92.5151944606 180.128975765 91.362919335 170.005615654 91.362919335 160.578886351 c 0
 91.362919335 48.6056377014 253.941254328 34.9223498269 277 34 c 0
 301.598166164 33.0258152014 326.354504997 32.4536526065 351.081755065 32.4536526065 c 0
 630.944559417 32.4536526065 907.081182067 105.745924482 908 499 c 0
EndSplineSet
Validated: 1
EndChar

StartChar: g
Encoding: 103 103 28
Width: 1000
VWidth: 1666
Flags: W
HStem: -42.7583 83.5602<173.262 343.504> 408 20G<90.402 147.69> 427.054 83.9461<614.906 761.761>
VStem: 22.3956 83.2291<110.884 284.8> 893.71 83.6238<51.0704 278.728>
LayerCount: 2
Fore
SplineSet
127 428 m 1xd8
 187 370 l 1
 130.255170019 311.023631761 105.624729968 247.067500527 105.624729968 191.350011279 c 0
 105.624729968 106.529485735 162.705656406 40.8019733954 250.464153152 40.8019733954 c 0
 285.889491285 40.8019733954 326.313685319 51.5121554476 370 76 c 0
 407 97 422 173 424 185 c 0
 470 461 601 511 683 511 c 0
 824 511 906 394 946 317 c 0
 961.666989036 286.710487864 977.333978072 226.966430273 977.333978072 160.128893397 c 0
 977.333978072 98.9822910318 964.221362571 31.8987427596 926 -24 c 0
 857 23 l 0
 884.813941648 63.375076586 893.7101302 113.20902972 893.7101302 158.507782787 c 0
 893.7101302 214.184386815 880.270820569 263.0097469 872 279 c 0
 798 424 708 426 686 427 c 0
 684.700891404 427.03608635 683.414805054 427.053941555 682.141505988 427.053941555 c 0xb8
 648.130020928 427.053941555 623.242186652 414.314359352 603 396 c 0
 556 355 522 270 506 172 c 0
 502 145 493 109 476 75 c 0
 462 48 442 20 411 3 c 0
 354.126627284 -28.80418869 299.98327189 -42.7582641171 251.149831142 -42.7582641171 c 0
 116.624859247 -42.7582641171 22.3955878136 63.1359509798 22.3955878136 193.476475774 c 0
 22.3955878136 268.727111944 53.8040920338 352.126192962 127 428 c 1xd8
EndSplineSet
Validated: 1
EndChar

StartChar: h
Encoding: 104 104 29
Width: 666
VWidth: 1666
Flags: W
HStem: -41 82.3305<198.04 600.251> 692 20G<303.5 454>
VStem: 9 82.9525<106.704 242.486>
LayerCount: 2
Fore
SplineSet
606 67 m 1
 632 -13 l 1
 573 -32 495 -41 395 -41 c 0
 278 -41 193 -28 130 -2 c 0
 29 40 9 112 9 162 c 0
 9 326 212 529 395 712 c 1
 513 594 588 519 658 429 c 1
 592 378 l 1
 533 454 458 530 395 594 c 1
 248 446 152 334 111 239 c 0
 96.9643919199 206.820800987 91.9525010627 181.907452206 91.9525010627 162.574986582 c 0
 91.9525010627 125.434580774 110.450314757 108.892017147 119 101 c 0
 166.41188363 58.1035338587 280.088001322 41.3304676841 390.080663746 41.3304676841 c 0
 474.962849909 41.3304676841 557.651417654 51.3193786985 606 67 c 1
EndSplineSet
Validated: 1
EndChar

StartChar: j
Encoding: 106 106 30
Width: 1000
VWidth: 1666
Flags: W
HStem: -42 83.0709<155.48 487.459 773 822.923> 625.004 82.9956<615.382 829.05>
VStem: 15 83.1106<81.7982 193.63> 543 83.9308<80.4664 193.057> 902 82.8788<181.111 500.339>
LayerCount: 2
Fore
SplineSet
902 334 m 0
 901 404 882 625 780 625 c 1
 780 625 779.626666667 625.004444444 778.898666667 625.004444444 c 0
 768.706666667 625.004444444 689 624.133333333 591 598 c 0
 520 579 443 548 381 498 c 1
 485.27433597 392.929676732 626.930822828 242.874053244 626.930822828 122.474589778 c 0
 626.930822828 91.6160321088 617.625346467 62.7056005171 596 37 c 0
 541 -28 426 -42 321 -42 c 0
 231 -42 164 -32 114 -11 c 0
 30 24 15 85 15 124 c 0
 15 251 170 408 291 529 c 0
 469 707 771 708 780 708 c 0
 857 708 905 654 932 599 c 0
 957 549 969 492 976 444 c 0
 981.879951962 403.330332266 984.878751001 368.1828743 984.878751001 333.734135325 c 0
 984.878751001 297.878751001 981.630052042 262.78031225 975 223 c 0
 939 -4 837 -42 773 -42 c 1
 773 42 l 1
 876 42 901 263 902 334 c 0
321 441 m 1
 213 332 142 248 112 179 c 0
 101.735259062 155.638865451 98.1106370844 137.915567756 98.1106370844 124.41104951 c 0
 98.1106370844 99.7625318932 110.185609257 89.1683473274 116 84 c 0
 150.637348456 52.8850937596 236.628371231 41.0708973304 318.53240166 41.0708973304 c 0
 376.140718759 41.0708973304 431.72711732 46.9156214583 466 56 c 0
 543 76 543 111 543 124 c 0
 543 217 382 380 321 441 c 1
EndSplineSet
Validated: 1
EndChar

StartChar: k
Encoding: 107 107 31
Width: 666
VWidth: 1666
Flags: W
HStem: -42 83.0709<168.38 499.476>
VStem: 27.8398 83.1602<80.6362 193.352> 556 82.8635<81.4719 194.222>
LayerCount: 2
Fore
SplineSet
469 292 m 1
 534 344 l 1
 572.160402943 296.299496321 638.863508068 206.592751696 638.863508068 123.095486006 c 0
 638.863508068 92.8136120378 630.090126071 63.3484636272 608 37 c 0
 553 -28 438 -42 333 -42 c 0
 229 -42 114 -28 59 37 c 0
 36.6902506412 63.4604004023 27.8398013487 93.0837363203 27.8398013487 123.530666831 c 0
 27.8398013487 210.451080156 99.9707845109 304.083772794 137 350 c 0
 137 350 137 349 202 297 c 1
 126 203 111 151 111 124 c 0
 111 107 115 95 128 84 c 0
 162.637348456 52.8850937596 248.628371231 41.0708973304 330.53240166 41.0708973304 c 0
 388.140718759 41.0708973304 443.72711732 46.9156214583 478 56 c 0
 555 76 556 111 556 124 c 0
 556 174 508 243 469 292 c 1
EndSplineSet
Validated: 1
EndChar

StartChar: m
Encoding: 109 109 32
Width: 1000
VWidth: 1666
Flags: W
HStem: -153 83<-251 -122.75> -42.526 83.3279<227.019 397.794 608.855 836.438> 406 21G<146.5 203.053 807 863.128>
VStem: 77 83.6247<108.614 285.002> 860.814 83.5394<61.8462 239.314>
LayerCount: 2
Fore
SplineSet
767 374 m 5
 832 426 l 5
 894.255890038 349.567026092 944.353612541 229.820580342 944.353612541 130.695838715 c 0
 944.353612541 69.0068983236 924.950631141 15.3047988812 877 -15 c 4
 849.711420646 -32.1816981116 801.993031604 -38.1270008946 752.55723334 -38.1270008946 c 0
 704.167011727 -38.1270008946 654.131259715 -32.4305271926 620 -26 c 4
 592 -21 542 -11 502 28 c 5
 471.473394521 0.0172783113007 390.793867336 -42.5259690344 304.203981309 -42.5259690344 c 0
 254.640028279 -42.5259690344 203.139602514 -28.5870795681 158 10 c 5
 46 -98 -136 -153 -251 -153 c 5
 -251 -70 l 5
 -158 -70 9 -21 106 76 c 5
 88 110 77 150 77 192 c 4
 77 270 111 353 182 427 c 5
 242 370 l 5
 185.255170019 311.023631761 160.624729968 247.067500527 160.624729968 191.350011279 c 0
 160.624729968 106.529485735 217.705656406 40.8019733954 305.464153152 40.8019733954 c 0
 340.889491285 40.8019733954 381.313685319 51.5121554476 425 76 c 4
 437 83 456 93 461 116 c 4
 460 127 460 138 461 146 c 5
 503 141 l 5
 544 146 l 5
 545 133 546 123 545 116 c 4
 551 83 585 66 636 56 c 4
 673.836797811 48.6291952317 715.536974319 45.1217691608 751.371157732 45.1217691608 c 0
 788.461542 45.1217691608 819.267448583 48.8794177838 833 56 c 4
 852.271848929 68.8478992861 860.814244314 95.8297902603 860.814244314 129.887439772 c 0
 860.814244314 201.863154169 822.661806463 305.440945697 767 374 c 5
EndSplineSet
Validated: 1
EndChar

StartChar: n
Encoding: 110 110 33
Width: 666
VWidth: 1666
Flags: W
HStem: -173 83<-289 -156.463> -68 82.624<190.032 478.614>
VStem: 29 83.1299<74.816 228.126> 557 83.2559<72.4511 225.136>
LayerCount: 2
Fore
SplineSet
109 -15 m 1
 111 -18 l 1
 -2 -121 -177 -173 -289 -173 c 1
 -289 -90 l 1
 -201 -90 -45 -46 54 43 c 1
 33 79 29 116 29 139 c 0
 29 225 75 313 131 384 c 0
 196 332 l 0
 171.754882812 301.01953125 112.129882812 214.249023438 112.129882812 139.809570312 c 0
 112.129882812 103.720703125 126.14453125 70.529296875 165 48 c 0
 203.284179688 25.6259765625 268.51171875 14.6240234375 333.891601562 14.6240234375 c 0
 400.010742188 14.6240234375 466.284179688 25.8759765625 505 48 c 0
 530 62 557 86 557 138 c 0
 557 195 520 273 468 338 c 1
 534 390 l 1
 603.60546875 303.171875 640.255859375 214.799804688 640.255859375 139.29296875 c 0
 640.255859375 109.576171875 634.579101562 81.8525390625 623 57 c 0
 566 -65 392 -68 335 -68 c 0
 237 -68 161 -51 109 -15 c 1
EndSplineSet
Validated: 1
EndChar

StartChar: q
Encoding: 113 113 34
Width: 1000
VWidth: 1666
Flags: W
HStem: -333 83<-268 -70.2518> -44.0052 83.7343<122.755 222.663> 248 84<147.199 261.736> 412 20G<922 957.286> 442 21G<238.311 269.5> 474 84<269.631 357.139>
VStem: 18.0014 82.9863<63.2434 202.985> 282.808 83.2453<55.7635 227.417> 536.625 83.8283<-186.031 10>
LayerCount: 2
Fore
SplineSet
107 152 m 1
 102.54976155 133.086486587 100.98769718 118.849064542 100.98769718 108.063632594 c 0
 100.98769718 89.7663120487 105.483412817 81.4040275708 108 77 c 0
 124.253514751 47.4481549985 174.347851792 39.7290985718 220.37755907 39.7290985718 c 0
 236.651518146 39.7290985718 252.417398502 40.6939806252 266 42 c 1
 277.86475208 77.282025923 282.80787239 110.614296418 282.80787239 139.77479092 c 0
 282.80787239 204.008476388 258.823017602 248 232 248 c 0
 131 248 107 190 107 152 c 1
594 115 m 1
 782 191 921 428 923 432 c 0
 995 390 l 1
 994 388 888 200 719 88 c 0
 686 66 651 47 614 33 c 1
 618.48256745 7.03846351633 620.453458532 -18.6439978153 620.453458532 -43.8519194335 c 0
 620.453458532 -153.609087695 583.089375181 -254.36994887 553 -330 c 1
 476 -299 l 1
 507.704798531 -218.903666868 536.625125457 -131.150036818 536.625125457 -42.7086712689 c 0
 536.625125457 -25.1480419613 535.484947948 -7.56029883328 533 10 c 1
 470 -7 396 -25 324 -35 c 1
 295 -94 251 -153 187 -202 c 0
 85 -280 -63 -333 -268 -333 c 1
 -268 -250 l 1
 59 -250 181 -106 223 -44 c 1
 222.230564623 -44.003481608 221.463905091 -44.0052177065 220.700011994 -44.0052177065 c 0
 51.4433526019 -44.0052177065 18.001357868 41.2263940823 18.001357868 109.316947736 c 0
 18.001357868 129.185160184 20.8486762609 147.593948621 24 162 c 0
 25 174 28 202 42 231 c 0
 85 317 176 332 232 332 c 0
 311.648247881 332 366.053164241 251.091886154 366.053164241 140.308431932 c 0
 366.053164241 113.391908317 362.841528527 84.7117810317 356 55 c 1
 410 65 465 78 514 91 c 1
 487 191 432 389 358 455 c 0
 346 465.5 333.25 474 317.25 474 c 0
 301.25 474 282 465.5 257 442 c 1
 200 503 l 1
 237 537 276 558 317 558 c 0
 463 558 540 316 594 115 c 1
EndSplineSet
Validated: 1
EndChar

StartChar: r
Encoding: 114 114 35
Width: 1000
VWidth: 1666
Flags: W
HStem: -42 83.0709<335.107 666.459> 625.004 82.9956<0 180.875 817.125 1000>
VStem: 193.961 83.1497<80.8982 194.287> 722 83.9393<80.4769 193.076>
LayerCount: 2
Fore
SplineSet
500 441 m 1
 392 332 321 248 291 179 c 0
 280.735259062 155.638865451 277.110637084 137.915567756 277.110637084 124.41104951 c 0
 277.110637084 99.7625318932 289.185609257 89.1683473274 295 84 c 0
 329.637348456 52.8850937596 415.628371231 41.0708973304 497.53240166 41.0708973304 c 0
 555.140718759 41.0708973304 610.72711732 46.9156214583 645 56 c 0
 722 76 722 111 722 124 c 0
 722 217 561 380 500 441 c 1
1000 708 m 1
 1000 625 l 1
 1000 625 999.568888889 625.004444444 998.729777778 625.004444444 c 0
 986.982222222 625.004444444 895.266666667 624.133333333 787 598 c 0
 708 579 625 547 561 498 c 1
 664.466236214 392.941975536 805.939319895 242.909181571 805.939319895 122.516870378 c 0
 805.939319895 91.6424396099 796.635222779 62.7173402846 775 37 c 0
 720 -28 605 -42 500 -42 c 0
 396 -42 280 -28 225 37 c 0
 203.297412688 62.7974151069 193.960941194 91.8225960375 193.960941194 122.805323642 c 0
 193.960941194 243.14875263 334.821122056 393.025863445 439 498 c 1
 291 613 45 625 0 625 c 1
 0 708 l 1
 5 708 316 708 500 556 c 1
 684 708 995 708 1000 708 c 1
EndSplineSet
Validated: 1
EndChar

StartChar: s
Encoding: 115 115 36
Width: 1000
VWidth: 1666
Flags: W
HStem: -46 83.802<217.43 388.461 597.855 825.438>
VStem: 66.5749 83.2893<107.75 281.561> 450 84<82.1504 137.694> 849.814 83.5394<58.8462 236.314>
LayerCount: 2
Fore
SplineSet
756 371 m 1
 821 423 l 1
 883.255890038 346.567026092 933.353612541 226.820580342 933.353612541 127.695838715 c 0
 933.353612541 66.0068983236 913.950631141 12.3047988812 866 -18 c 0
 838.711420646 -35.1816981116 790.993031604 -41.1270008946 741.55723334 -41.1270008946 c 0
 693.167011727 -41.1270008946 643.131259715 -35.4305271926 609 -29 c 0
 581 -24 531 -14 491 25 c 1
 464 0 382 -46 295 -46 c 0
 160.143593314 -46 66.5749336288 59.8249049357 66.5749336288 189.754064884 c 0
 66.5749336288 265.042526769 97.9926053079 348.424505997 171 424 c 1
 231 367 l 1
 174.414358507 308.18908047 149.864234592 244.426298602 149.864234592 188.819124845 c 0
 149.864234592 103.771952992 207.290661591 37.8019733954 295.364056151 37.8019733954 c 0
 330.851113395 37.8019733954 371.313685319 48.5121554476 415 73 c 0
 427 80 445 90 450 113 c 0
 449 124 450 135 451 143 c 1
 492 138 l 1
 533 143 l 1
 534 130 535 120 534 113 c 0
 540 80 574 63 625 53 c 0
 662.836797811 45.6291952317 704.536974319 42.1217691608 740.371157732 42.1217691608 c 0
 777.461542 42.1217691608 808.267448583 45.8794177838 822 53 c 0
 841.271848929 65.8478992861 849.814244314 92.8297902603 849.814244314 126.887439772 c 0
 849.814244314 198.863154169 811.661806463 302.440945697 756 371 c 1
EndSplineSet
Validated: 1
EndChar

StartChar: t
Encoding: 116 116 37
Width: 1000
VWidth: 1666
Flags: W
HStem: -208 82.9956<0 182.875 819.125 1000> 458.564 83.4365<333.541 664.593>
VStem: 194.061 83.9393<306.924 419.523> 722.889 83.1497<305.713 417.942>
LayerCount: 2
Fore
SplineSet
500 59 m 1
 608 168 679 252 709 321 c 0
 719.264740938 344.361134549 722.889362916 361.959146981 722.889362916 375.301785788 c 0
 722.889362916 399.654840202 710.814390743 409.831652673 705 415 c 0
 669.946014355 446.489173545 582.295503421 458.56352232 499.513907857 458.56352232 c 0
 442.964296188 458.56352232 388.686765957 452.929022302 355 444 c 0
 278 424 278 389 278 376 c 0
 278 283 439 120 500 59 c 1
0 -208 m 1
 0 -125 l 1
 8.54871728961e-15 -125 0.431111111111 -125.004444444 1.27022222222 -125.004444444 c 0
 13.0177777778 -125.004444444 104.733333333 -124.133333333 213 -98 c 0
 292 -79 375 -47 439 2 c 1
 335.533763786 107.058024464 194.060680105 257.090818429 194.060680105 377.483129622 c 0
 194.060680105 408.35756039 203.364777221 437.282659715 225 463 c 0
 280 528 395 542 500 542 c 0
 604 542 720 528 775 463 c 0
 796.702587312 437.202584893 806.039058806 408.177403962 806.039058806 377.194676358 c 0
 806.039058806 256.85124737 665.178877944 106.974136555 561 2 c 1
 709 -113 955 -125 1000 -125 c 1
 1000 -208 l 1
 995 -208 684 -208 500 -56 c 1
 316 -208 5 -208 0 -208 c 1
EndSplineSet
Validated: 1
EndChar

StartChar: u
Encoding: 117 117 38
Width: 666
VWidth: 1666
Flags: W
HStem: -333 83<584.143 667> -41 83<196.636 326 438 594.099> 625 83<0 124.933>
VStem: 8.36616 84.3114<105.637 243.362> 292 83<333 441.32> 326 87<44 149.484>
LayerCount: 2
Fore
SplineSet
375 333 m 1xf8
 375 333 376 189 413 42 c 1
 499 43 562 53 606 67 c 1
 632 -13 l 1
 581 -29 518 -39 438 -41 c 1
 483 -163 554 -250 667 -250 c 1
 667 -333 l 1
 452 -333 373 -110 350 -41 c 1
 231 -37 107 -17 46 56 c 0
 19.5262768472 87.3936186059 8.36615592657 122.903796952 8.36615592657 160.601673747 c 0
 8.36615592657 283.812787852 127.582249776 430.393618606 221 533 c 1
 159 608 73 625 0 625 c 1
 0 708 l 1
 155 708 237 641 279 594 c 1
 309 625 327 643 396 712 c 1
 514 594 588 519 658 429 c 1
 592 378 l 1
 533 454 459 530 396 594 c 1
 374 572 350 548 326 523 c 1xf4
 370 438 375 352 375 333 c 1xf8
292 333 m 0xf8
 292 334 292 389 265 457 c 1
 215 400 145 316 112 239 c 0
 97.7456013678 206.319183624 92.6775673446 181.132506797 92.6775673446 161.674970697 c 0
 92.6775673446 125.166695774 110.519687371 108.827980888 119 101 c 0
 171 55 285 46 326 44 c 1xf4
 292 192 292 330 292 333 c 0xf8
EndSplineSet
Validated: 1
EndChar

StartChar: v
Encoding: 118 118 39
Width: 1000
VWidth: 1666
Flags: W
HStem: -333 83<-268 -80.5938> -51.1653 84.0388<343 591.241> 292 83<132.976 240.39> 782 83<631.806 768.943>
VStem: 19 83<101.593 259.769> 280.753 85.0667<45.6105 246.506> 915.012 85.9884<285.833 569.249>
LayerCount: 2
Fore
SplineSet
102 161 m 4
 102 67 217 43 256 37 c 5
 272.967236118 80.0465064468 280.752887723 121.217205305 280.752887723 157.441044181 c 0
 280.752887723 236.503353604 243.663897366 292 184 292 c 4
 109 292 107 205 107 199 c 4
 107 190 102 180 102 161 c 4
307 -50 m 5
 279 -101 240 -150 189 -192 c 4
 87 -276 -63 -333 -268 -333 c 5
 -268 -250 l 5
 18 -250 153 -131 215 -40 c 5
 98 -15 19 58 19 160 c 4
 19 175 20 190 22 203 c 4
 24 217 28 245 43 275 c 4
 86 360 175 375 214 375 c 4
 310.083525975 375 365.819560703 285.697552707 365.819560703 168.646832048 c 0
 365.819560703 126.110940426 358.45920224 79.9106826594 343 33 c 5
 349.674307428 32.9160464474 356.321303086 32.8735010639 362.939174826 32.8735010639 c 0
 670.408461846 32.8735010639 915.011639345 124.710827606 915.011639345 422.434763145 c 0
 915.011639345 617.957090411 807.408587773 782 705 782 c 4
 682 782 658 773 651 767 c 4
 648.557142857 764.685714286 645.486122449 763.677346939 641.988848397 763.677346939 c 0
 618.285102041 763.677346939 575 810 575 810 c 5
 614 847 660 865 706 865 c 4
 761 865 812 840 855 803 c 4
 960 714 1001 574 1001 432 c 4
 1001 -7.41878742669 596.445300737 -51.165314097 374.362539068 -51.165314097 c 0
 349.304137082 -51.165314097 326.56886304 -50.6083584365 307 -50 c 5
EndSplineSet
Validated: 1
EndChar

StartChar: w
Encoding: 119 119 40
Width: 1000
VWidth: 1666
Flags: W
HStem: -44 83.3655<115.746 382.215> 412 20G<906 951.286> 442 21G<231.311 262.5> 474 84<262.642 350.639>
VStem: 11.1727 82.9435<60.4605 147.528> 529.625 83.9212<-186.301 10>
LayerCount: 2
Fore
SplineSet
587 115 m 1
 761 186 895 394 917 432 c 0
 989 390 l 1
 985 383 829 116 607 33 c 1
 611.547941834 6.65983688093 613.546321133 -19.3930515865 613.546321133 -44.9545234637 c 0
 613.546321133 -154.28381042 576.988589673 -254.623274605 547 -330 c 1
 469 -299 l 1
 500.704798531 -218.903666868 529.625125457 -131.150036818 529.625125457 -42.7086712689 c 0
 529.625125457 -25.1480419613 528.484947948 -7.56029883328 526 10 c 1
 432 -15 314 -44 213 -44 c 0
 45.1248629718 -44 11.1727460968 41.5942780979 11.1727460968 110.146040261 c 0
 11.1727460968 131.431212518 14.4460320701 151.073334694 18 166 c 1
 99 147 l 1
 95.5701385778 132.208722617 94.1162530273 119.852950378 94.1162530273 109.489399048 c 0
 94.1162530273 71.5079005737 113.644227761 60.2850692889 127 54 c 0
 148.457473194 43.5329399055 178.063422822 39.3655422647 211.822092135 39.3655422647 c 0
 307.072596393 39.3655422647 435.382620729 72.5419125591 507 91 c 1
 480 191 426 389 352 455 c 0
 340 465.5 327 474 310.75 474 c 0
 294.5 474 275 465.5 250 442 c 0
 193 503 l 1
 230 537 269 558 310 558 c 0
 456 558 533 316 587 115 c 1
EndSplineSet
Validated: 1
EndChar

StartChar: x
Encoding: 120 120 41
Width: 1000
VWidth: 1666
Flags: W
HStem: -46 82.802<160.141 329.168> -39.1878 83.1878<519.7 708.493> 743 21G<602.311 634> 776 83<634.426 760.366>
VStem: 9.57493 83.0498<107.134 280.942> 907 83<321.417 590.119>
LayerCount: 2
Fore
SplineSet
694 776 m 0x7c
 671 776 647 767 621 743 c 1
 564 804 l 1
 603 841 648 859 694 859 c 0
 750 859 800 834 842 798 c 0
 948 708 990 569 990 494 c 0
 990 332 946 210 887 128 c 0
 883 122 879 117 875 112 c 0
 828 46 797 1 689 -29 c 0
 665.344071446 -35.5508725226 638.376882799 -39.1878361632 610.556820239 -39.1878361632 c 0x7c
 561.934985271 -39.1878361632 510.708008809 -28.078568143 470 -2 c 0
 456 5 444 15 434 25 c 1
 407 0 325 -46 238 -46 c 0xbc
 103.143593314 -46 9.57493362875 59.8249049357 9.57493362875 189.754064884 c 0
 9.57493362875 265.042526769 40.9926053079 348.424505997 114 424 c 1
 174 366 l 1
 117.255170019 307.023631761 92.6247299682 243.067500527 92.6247299682 187.350011279 c 0
 92.6247299682 102.529485735 149.705656406 36.8019733954 237.464153152 36.8019733954 c 0
 272.889491285 36.8019733954 313.313685319 47.5121554476 357 72 c 0
 369 79 388 90 393 113 c 0
 392 124 392 135 393 143 c 1
 435 138 l 1
 476 143 l 1
 477 130 478 119 477 112 c 0
 481 91 494 80 511 71 c 0
 512 70 513 70 514 69 c 0
 538 54 575 44 613 44 c 0
 671 44 723 70 744 86 c 0
 765 102 774 113 819 177 c 0
 867 244 907 347 907 493 c 0
 902 620 793 776 694 776 c 0x7c
EndSplineSet
Validated: 1
EndChar

StartChar: y
Encoding: 121 121 42
Width: 1000
VWidth: 1666
Flags: W
HStem: -42.7583 83.1799<656.992 826.511> 408 20G<852.31 909.541> 427 83.958<237.38 384.715>
VStem: 22.666 83.6238<51.0704 278.728> 894.343 83.0752<110.891 284.913>
LayerCount: 2
Fore
SplineSet
813 370 m 1xb8
 873 428 l 1xd8
 946.081735767 352.244542193 977.418070837 268.987268192 977.418070837 193.828666786 c 0
 977.418070837 63.3267613665 882.941411586 -42.7582641171 748.479275913 -42.7582641171 c 0
 699.712561628 -42.7582641171 645.686289253 -28.80418869 589 3 c 0
 523 39 501 132 494 172 c 0
 478 270 444 355 397 396 c 0
 374 416 349 427 317 427 c 0
 209 427 148 319 128 279 c 0
 119.729179431 263.0097469 106.2898698 214.184386815 106.2898698 158.507782787 c 0
 106.2898698 113.20902972 115.186058352 63.375076586 143 23 c 1
 74 -24 l 1
 35.7786374294 31.8987427596 22.666021928 98.9822910318 22.666021928 160.128893397 c 0
 22.666021928 226.966430273 38.333010964 286.710487864 54 317 c 0
 67 343 96 397 146 442 c 0
 196.007543042 487.115500788 256.060649444 510.958043873 314.596184989 510.958043873 c 0
 363.749788772 510.958043873 411.83330204 494.145860715 452 459 c 0
 523 396 559 291 576 185 c 0
 579 164 587 135 599 112 c 0
 611 88 623 79 629 76 c 0
 673.014655052 51.2417565335 713.708859531 40.4216834913 749.337692763 40.4216834913 c 0
 837.265484642 40.4216834913 894.342903898 106.320759556 894.342903898 191.252319664 c 0
 894.342903898 247.050010904 869.707562584 311.06236473 813 370 c 1xb8
EndSplineSet
Validated: 1
EndChar

StartChar: z
Encoding: 122 122 43
Width: 1000
VWidth: 1666
Flags: W
HStem: -43 21G<796 839> 342.679 83.3208<217.107 385.535 599.695 829.285>
VStem: 66.5749 83.0822<99.0286 272.695> 450 84<242.156 299.212> 849.814 83.1858<142.12 322.065>
LayerCount: 2
Fore
SplineSet
491 355 m 1
 531 394 581 404 609 409 c 0
 639.942027182 415.188405436 690.83007616 421.64275783 741.228950947 421.64275783 c 0
 788.559047483 421.64275783 835.457727636 415.950484144 865 399 c 0
 920 364 933 303 933 253 c 0
 933 208 923 160 907 114 c 0
 887 56 857 1 821 -43 c 0
 756 9 l 1
 811.661806463 77.5590543026 849.814244314 181.136845831 849.814244314 253.112560228 c 0
 849.814244314 287.17020974 841.271848929 314.152100714 822 327 c 0
 807.409975482 334.464663707 778.083764713 337.669648576 744.177679988 337.669648576 c 0
 678.155101716 337.669648576 594.767187065 325.517427606 569 309 c 0
 557 302 538 292 534 267 c 0
 535 257 534 247 533 237 c 1
 492 242 l 1
 451 237 l 1
 450 251 450 262 450 267 c 0
 446 287 431 299 415 307 c 0
 370.858820062 331.829413715 330.057208122 342.679240459 294.355176046 342.679240459 c 0
 206.601624408 342.679240459 149.657096102 277.130200286 149.657096102 192.507865744 c 0
 149.657096102 136.848494725 174.292437416 72.9376352701 231 14 c 1
 171 -44 l 1
 97.9926053079 31.5754940029 66.5749336288 114.957473231 66.5749336288 190.245935116 c 0
 66.5749336288 320.175095064 160.143593314 426 295 426 c 0
 382 426 464 380 491 355 c 1
EndSplineSet
Validated: 1
EndChar

StartChar: one
Encoding: 49 49 850
Width: 333
Flags: HW
LayerCount: 2
Fore
SplineSet
72.712890625 -178 m 5
 84.92578125 -164.041015625 329.3515625 117.921875 329.3515625 327.309570312 c 4
 329.3515625 383.5625 311.49609375 457.920898438 230.583984375 506.091796875 c 4
 175.884765625 538.657226562 100.869140625 554.838867188 0 554.838867188 c 5
 0 471.838867188 l 5
 92.15234375 471.838867188 152.3046875 456.099609375 188.21484375 434.720703125 c 4
 215.921875 418.224609375 280.2890625 373.998046875 223.775390625 217.8828125 c 4
 205.845703125 168.348632812 178.71875 116.408203125 149.654296875 68.70703125 c 4
 83.66015625 -39.603515625 10.259765625 -123.353515625 10.259765625 -123.353515625 c 6
 72.712890625 -178 l 5
EndSplineSet
EndChar

StartChar: two
Encoding: 50 50 851
Width: 333
Flags: HW
LayerCount: 2
Fore
SplineSet
85.5048828125 84.041015625 m 1
 83.9521484375 83.90625 90.6650390625 88.185546875 107.043945312 88.185546875 c 0
 130.994140625 88.185546875 179.684570312 78.46484375 247.79296875 48.81640625 c 1
 244.08984375 24.1640625 233.190429688 -22.6708984375 202.673828125 -41.1640625 c 0
 193.926757812 -46.46484375 183.03125 -50.1513671875 166.984375 -50.1513671875 c 1
 166.984375 -133.151367188 l 1
 238.752929688 -133.151367188 302.90625 -89.3603515625 325.698242188 13.9345703125 c 0
 333 47.025390625 333 63.828125 333 100 c 1
 270.194335938 131.405273438 120.984375 202.295898438 43.6337890625 155.884765625 c 0
 27.3740234375 146.129882812 0.984375 122.829101562 0.984375 74.3486328125 c 1
 83.984375 74.3486328125 l 1
 83.984375 81.1572265625 85.294921875 83.6669921875 85.5048828125 84.041015625 c 1
EndSplineSet
EndChar

StartChar: three
Encoding: 51 51 852
Width: 333
Flags: HW
LayerCount: 2
Fore
SplineSet
258.744140625 133.838867188 m 5
 330.86328125 190.05078125 332.50390625 301.020507812 332.50390625 310.978515625 c 6
 332.50390625 336.631835938 l 5
 269.697265625 368.037109375 120.48828125 438.927734375 43.13671875 392.516601562 c 4
 26.87890625 382.76171875 0.48828125 359.4609375 0.48828125 310.98046875 c 5
 83.48828125 310.98046875 l 5
 83.48828125 317.7890625 84.798828125 320.298828125 85.009765625 320.672851562 c 5
 83.455078125 320.538085938 90.169921875 324.817382812 106.548828125 324.817382812 c 4
 130.498046875 324.817382812 179.189453125 315.096679688 247.296875 285.448242188 c 5
 243.59375 260.795898438 232.693359375 213.9609375 202.177734375 195.467773438 c 4
 187.982421875 186.865234375 175.41796875 186.64453125 163.48828125 186.43359375 c 4
 112.966796875 185.543945312 61.34375 184.634765625 27.453125 148.966796875 c 4
 2.15625 122.34375 0.49609375 87.5673828125 0.49609375 74.1875 c 5
 0.49609375 74.1875 83.49609375 74.1826171875 83.49609375 74.23046875 c 4
 83.501953125 81.0068359375 84.806640625 83.5068359375 85.015625 83.8798828125 c 5
 83.462890625 83.7451171875 90.17578125 88.0244140625 106.5546875 88.0244140625 c 4
 130.505859375 88.0244140625 179.2109375 78.3017578125 247.341796875 48.638671875 c 5
 243.716796875 24.0615234375 232.8515625 -23.875 202.05859375 -42.6953125 c 4
 193.32421875 -48.033203125 182.48828125 -51.7294921875 166.50390625 -51.7294921875 c 5
 166.50390625 -134.729492188 l 5
 237.875 -134.729492188 302.365234375 -91.1123046875 325.228515625 13.408203125 c 4
 332.51171875 46.703125 332.51171875 65.63671875 332.51171875 99.83984375 c 5
 300.90234375 115.64453125 288.234375 121.978515625 258.744140625 133.838867188 c 5
EndSplineSet
EndChar

StartChar: four
Encoding: 52 52 853
Width: 333
Flags: HW
LayerCount: 2
Fore
SplineSet
55.7705078125 -221.930664062 m 1
 85.2392578125 -202.854492188 172.989257812 -154.7421875 224.174804688 -154.7421875 c 0
 235.45703125 -154.7421875 240.715820312 -157.3515625 242.3828125 -158.639648438 c 0
 243.525390625 -159.5234375 249.467773438 -163.802734375 249.467773438 -187.01953125 c 1
 332.467773438 -187.01953125 l 1
 332.467773438 -148.75390625 320.740234375 -114.323242188 293.086914062 -92.9423828125 c 0
 253.58984375 -62.4033203125 198.041015625 -69.041015625 145.54296875 -86.525390625 c 1
 224.037109375 56.83984375 332.467773438 314.3515625 332.467773438 642.98046875 c 1
 249.467773438 642.98046875 l 1
 249.467773438 428.145507812 200.013671875 244.708984375 144.991210938 107.330078125 c 0
 75.4775390625 -66.228515625 0.5322265625 -161.609375 0.5322265625 -161.609375 c 1
 55.7705078125 -221.930664062 l 1
EndSplineSet
EndChar

StartChar: five
Encoding: 53 53 854
Width: 333
Flags: HW
LayerCount: 2
Fore
SplineSet
55.802734375 -221.930664062 m 1
 85.271484375 -202.854492188 173.021484375 -154.7421875 224.20703125 -154.7421875 c 0
 235.489257812 -154.7421875 240.748046875 -157.3515625 242.415039062 -158.639648438 c 0
 243.557617188 -159.5234375 249.5 -163.802734375 249.5 -187.01953125 c 1
 332.5 -187.01953125 l 1
 332.5 -148.75390625 320.772460938 -114.323242188 293.119140625 -92.9423828125 c 0
 253.568359375 -62.3623046875 197.93359375 -69.0693359375 145.4609375 -86.5634765625 c 1
 227.629882812 63.6689453125 332.5 320.744140625 332.5 642.98046875 c 1
 249.5 642.98046875 l 1
 249.5 576.506835938 244.76953125 513.043945312 236.604492188 453.01953125 c 1
 193.396484375 500.322265625 132.159179688 532.538085938 103 576.250976562 c 0
 90.9072265625 594.379882812 83.5 614.211914062 83.5 642.98046875 c 1
 0.5 642.98046875 l 1
 0.5 491.3984375 141.245117188 451.69921875 190.600585938 377.709960938 c 0
 202.592773438 359.731445312 209.977539062 340.078125 210.098632812 311.694335938 c 1
 179.09375 182.317382812 134.51953125 74.6826171875 94.3896484375 -5.103515625 c 0
 42.4970703125 -108.27734375 0.564453125 -161.609375 0.564453125 -161.609375 c 1
 55.802734375 -221.930664062 l 1
EndSplineSet
EndChar

StartChar: six
Encoding: 54 54 855
Width: 333
Flags: HW
LayerCount: 2
Fore
SplineSet
55.802734375 -221.930664062 m 1
 85.271484375 -202.854492188 173.021484375 -154.7421875 224.20703125 -154.7421875 c 0
 235.489257812 -154.7421875 240.748046875 -157.3515625 242.415039062 -158.639648438 c 0
 243.557617188 -159.5234375 249.5 -163.802734375 249.5 -187.01953125 c 1
 332.5 -187.01953125 l 1
 332.5 -148.75390625 320.772460938 -114.323242188 293.119140625 -92.9423828125 c 0
 253.568359375 -62.3623046875 197.93359375 -69.0693359375 145.4609375 -86.5634765625 c 1
 227.629882812 63.6689453125 332.5 320.744140625 332.5 642.98046875 c 1
 249.5 642.98046875 l 1
 249.5 576.506835938 244.76953125 513.043945312 236.604492188 453.01953125 c 1
 193.396484375 500.322265625 132.159179688 532.538085938 103 576.250976562 c 0
 90.9072265625 594.379882812 83.5 614.211914062 83.5 642.98046875 c 1
 0.5 642.98046875 l 1
 0.5 491.3984375 141.245117188 451.69921875 190.600585938 377.709960938 c 0
 202.592773438 359.731445312 209.977539062 340.078125 210.098632812 311.694335938 c 1
 198.884765625 264.899414062 185.895507812 220.94921875 171.982421875 180.130859375 c 1
 115.299804688 225.044921875 83.5029296875 254.318359375 83.5029296875 313.141601562 c 1
 0.5029296875 313.141601562 l 1
 0.5029296875 210.078125 66.171875 158.069335938 121.068359375 114.592773438 c 0
 128.068359375 109.048828125 134.875976562 103.647460938 141.374023438 98.314453125 c 1
 73.146484375 -68.8466796875 1.892578125 -158.96875 0.564453125 -161.609375 c 1
 55.802734375 -221.930664062 l 1
EndSplineSet
EndChar

StartChar: p
Encoding: 112 112 861
Width: 0
Flags: HW
LayerCount: 2
Fore
SplineSet
-117.309570312 -291.310546875 m 5
 -136.873046875 -271.747070312 -156.436523438 -252.18359375 -176 -232.620117188 c 5
 -234.690429688 -291.309570312 l 5
 -215.126953125 -310.873046875 -195.563476562 -330.436523438 -176 -350 c 5
 -117.309570312 -291.310546875 l 5
EndSplineSet
EndChar

StartChar: zero
Encoding: 48 48 862
Width: 333
Flags: HW
LayerCount: 2
Fore
SplineSet
229.607421875 353.85546875 m 0
 229.607421875 368.260742188 228.271484375 380.884765625 225.865234375 391.861328125 c 1
 169.458984375 374.768554688 l 0
 167.458984375 374.162109375 l 0
 155.458984375 370.525390625 l 0
 155.458984375 370.525390625 102.909179688 354.596679688 102.9140625 354.595703125 c 1
 103.908203125 339.18359375 108.955078125 324.287109375 118.458984375 311 c 1
 138.555789705 287.458460449 150.90692358 284.558517412 166.212890625 273.784179688 c 1
 164.5234375 270.040039062 130.759765625 198.912109375 130.759765625 198.912109375 c 1
 103.515625 211.848632812 82.65234375 227.352539062 66.712890625 243.625976562 c 1
 53.9516379826 257.934895834 46.1169006809 272.243815103 35.93359375 286.552734375 c 1
 28.560546875 301.436523438 23.91796875 316.268554688 21.458984375 330 c 1
 19.458984375 329.379882812 l 0
 8.794921875 326.0703125 l 2
 8.4677734375 325.96875 -5.7109375 373.9296875 -5.7109375 373.9296875 c 1
 20.67578125 381.927734375 l 1
 21.73046875 392.703125 22.4453125 414.04296875 23.998046875 421.499023438 c 0
 36.611328125 482.041992188 73.08203125 521.165039062 116 537.908203125 c 0
 175.889648438 561.272460938 249.335134844 529.058266208 287.02734375 462.661132812 c 1
 324.205078125 473.9296875 l 1
 338.7109375 426.0703125 l 1
 338.7109375 426.0703125 305.469726562 415.994140625 305.46875 415.994140625 c 1
 309.00390625 401.955078125 311.279296875 386.6875 312.17578125 370.127929688 c 1
 310.19921875 317.428710938 l 1
 306.140625 282.060546875 296.619140625 247.165039062 284.3984375 213.954101562 c 1
 324.205078125 225.625976562 l 2
 324.458984375 226 338.7109375 177.766601562 338.7109375 177.766601562 c 1
 338.7109375 177.766601562 256.833984375 151.94921875 256.802734375 151.9609375 c 1
 179.248046875 33.322265625 l 2
 125.225585938 -54.33984375 143.6157642 -142.68509843 142.94921875 -200.90625 c 1
 59.966796875 -199.124023438 l 1
 61.2522238822 -102.116153198 50.5791015625 -6.4228515625 111.53125 81.302734375 c 2
 139.208984375 117.231445312 l 1
 139.387695312 117.350585938 98.232421875 104.875976562 98.232421875 104.875976562 c 2
 98.458984375 105 83.7265625 152.735351562 83.7265625 152.735351562 c 1
 83.7265625 152.735351562 178.23046875 181.379882812 178.154296875 181.408203125 c 1
 200.984375 224.293945312 211.892570756 261.440704585 221.078125 290.416992188 c 0
 227.265766107 309.936213732 229.607421875 344.000137829 229.607421875 353.85546875 c 0
312.17578125 370.127929688 m 1025
202.982421875 437.185546875 m 1
 192.744059677 448.964993341 175.861643543 463.773234136 161 464.142578125 c 0
 148.292240726 464.458393431 135.928904575 457.473880969 125.775390625 447.865234375 c 0
 118.604078324 441.078755737 113.522150786 420.947265067 111.130859375 409.337890625 c 1
 202.982421875 437.185546875 l 1
EndSplineSet
EndChar

StartChar: P
Encoding: 80 80 863
Width: 0
Flags: HWO
LayerCount: 2
Fore
SplineSet
-342 -348 m 0
 -373.903320312 -347.033203125 -404.645703624 -336.66435497 -451.309570312 -291.310546875 c 0
 -471.147551698 -272.029504291 -490.436523438 -252.18359375 -510 -232.620117188 c 1
 -568.690429688 -291.309570312 l 1
 -549.126953125 -310.873046875 -513.676441049 -346.557152443 -510 -350 c 0
 -439.176174456 -416.323825544 -396.322265625 -439.063476562 -342 -440 c 0
 -284 -441 -245 -416 -176 -350 c 0
 -152.608051769 -327.625092996 -117.309570312 -291.310546875 -117.309570312 -291.310546875 c 1
 -136.873046875 -271.747070312 -156.436523438 -252.18359375 -176 -232.620117188 c 1
 -234.690429688 -291.309570312 l 1
 -276 -330 -309 -349 -342 -348 c 0
EndSplineSet
EndChar
